<svg width="44" height="42" viewBox="0 0 44 42" fill="none" xmlns="http://www.w3.org/2000/svg">
<g id="icon/linkedin">
<path id="vector" d="M38.5 7.56618V34.4338C38.5 35.0481 38.2444 35.6372 37.7893 36.0716C37.3343 36.506 36.7171 36.75 36.0735 36.75H7.92647C7.28293 36.75 6.66575 36.506 6.2107 36.0716C5.75565 35.6372 5.5 35.0481 5.5 34.4338V7.56618C5.5 6.95189 5.75565 6.36276 6.2107 5.92839C6.66575 5.49403 7.28293 5.25 7.92647 5.25H36.0735C36.7171 5.25 37.3343 5.49403 37.7893 5.92839C38.2444 6.36276 38.5 6.95189 38.5 7.56618ZM15.2059 17.2941H10.3529V32.1176H15.2059V17.2941ZM15.6426 12.1985C15.6452 11.8481 15.5754 11.5007 15.4373 11.176C15.2992 10.8514 15.0954 10.5558 14.8377 10.3064C14.5799 10.0569 14.2732 9.85828 13.935 9.72195C13.5968 9.58561 13.2339 9.51419 12.8668 9.51176H12.7794C12.0329 9.51176 11.317 9.79483 10.7891 10.2987C10.2613 10.8026 9.96471 11.486 9.96471 12.1985C9.96471 12.9111 10.2613 13.5945 10.7891 14.0984C11.317 14.6022 12.0329 14.8853 12.7794 14.8853C13.1465 14.8939 13.5118 14.8334 13.8544 14.7072C14.197 14.581 14.5102 14.3916 14.7761 14.1499C15.042 13.9081 15.2554 13.6187 15.4041 13.2982C15.5528 12.9777 15.6338 12.6323 15.6426 12.2819V12.1985ZM33.6471 23.1124C33.6471 18.656 30.6771 16.9235 27.7265 16.9235C26.7604 16.8774 25.7985 17.0738 24.9368 17.4932C24.075 17.9126 23.3435 18.5403 22.8153 19.3138H22.6794V17.2941H18.1176V32.1176H22.9706V24.2334C22.9004 23.4259 23.1669 22.6246 23.7121 22.0036C24.2573 21.3825 25.0372 20.9919 25.8824 20.9166H26.0668C27.61 20.9166 28.7553 21.8431 28.7553 24.1778V32.1176H33.6082L33.6471 23.1124Z" fill="black"/>
</g>
</svg>
